<svg width="88" height="88" viewBox="0 0 88 88" fill="none" xmlns="http://www.w3.org/2000/svg">
<path fill-rule="evenodd" clip-rule="evenodd" d="M76.2621 77.7185H8.82017V47.6931C12.1972 48.5264 16.8731 47.6784 17.5954 45.1484H17.798C18.8943 48.9517 28.9217 48.9517 30.0236 45.1484H30.2207C31.317 48.9517 41.349 48.9517 42.4453 45.1484H42.6424C43.7388 48.9517 53.7708 48.9517 54.868 45.1484H55.0642C56.1614 48.9517 66.1934 48.9517 67.2898 45.1484H67.4868C68.2165 47.6766 72.8851 48.5264 76.2621 47.6931V77.7185Z" fill="#1BBECB"/>
<path fill-rule="evenodd" clip-rule="evenodd" d="M36.7629 77.7185H8.82016V47.6931C12.1972 48.5264 16.8731 47.6784 17.5954 45.1484H17.798C18.8943 48.9517 28.9217 48.9517 30.0236 45.1484H30.2207C31.317 48.9517 41.349 48.9517 42.4453 45.1484H42.6424C43.7387 48.9517 53.7707 48.9517 54.868 45.1484H55.0642C56.1614 48.9517 66.1934 48.9517 67.2897 45.1484H67.4868C68.1322 47.3879 71.8722 48.3091 75.0631 47.9159C71.159 55.3097 64.5691 62.5367 55.6242 68.5427C49.6696 72.5366 43.2465 75.6038 36.7629 77.7185Z" fill="#6FCCDD"/>
<path fill-rule="evenodd" clip-rule="evenodd" d="M79.8087 41.0664H67.386V44.4498C67.386 49.1917 79.8087 49.1917 79.8087 44.4498V41.0664Z" fill="#8178B8"/>
<path fill-rule="evenodd" clip-rule="evenodd" d="M77.9882 41.0664H67.386V43.9328C70.8363 45.7937 77.9882 44.9274 77.9882 41.3313V41.0664Z" fill="#AC8EC2"/>
<path fill-rule="evenodd" clip-rule="evenodd" d="M54.9661 41.0664H67.386V44.4498C67.386 49.1917 54.9642 49.1917 54.9642 44.4498V41.0664H54.9661Z" fill="#8178B8"/>
<path fill-rule="evenodd" clip-rule="evenodd" d="M54.9661 41.0664H65.3336V41.3973C65.3336 44.9109 58.4925 45.8175 54.9661 44.1116V41.0664Z" fill="#AC8EC2"/>
<path fill-rule="evenodd" clip-rule="evenodd" d="M54.9661 41.0664H42.5443V44.4498C42.5443 49.1917 54.9661 49.1917 54.9661 44.4498V41.0664Z" fill="#8178B8"/>
<path fill-rule="evenodd" clip-rule="evenodd" d="M53.2327 41.0664H42.5443V43.6826C45.9571 45.6048 53.2327 44.7551 53.2327 41.1287V41.0664Z" fill="#AC8EC2"/>
<path fill-rule="evenodd" clip-rule="evenodd" d="M30.1216 41.0664H42.5443V44.4498C42.5443 49.1917 30.1216 49.1917 30.1216 44.4498V41.0664Z" fill="#8178B8"/>
<path fill-rule="evenodd" clip-rule="evenodd" d="M30.1217 41.0664H40.8888C40.8888 44.7184 33.5042 45.5599 30.1217 43.5744V41.0664Z" fill="#AC8EC2"/>
<path fill-rule="evenodd" clip-rule="evenodd" d="M30.1217 41.0664H17.6999V44.4498C17.6999 49.1917 30.1217 49.1917 30.1217 44.4498V41.0664Z" fill="#8178B8"/>
<path fill-rule="evenodd" clip-rule="evenodd" d="M28.5716 41.0664H17.7017V43.2948C20.9632 45.3197 28.2865 44.58 28.5716 41.0664Z" fill="#AC8EC2"/>
<path fill-rule="evenodd" clip-rule="evenodd" d="M5.27358 41.0664H17.7018V44.4498C17.7018 49.1917 5.27358 49.1917 5.27358 44.4498V41.0664Z" fill="#8178B8"/>
<path fill-rule="evenodd" clip-rule="evenodd" d="M5.2736 41.0664H16.1434C16.0398 44.6872 8.58368 45.4811 5.2736 43.4342V41.0664Z" fill="#AC8EC2"/>
<path fill-rule="evenodd" clip-rule="evenodd" d="M5.27357 41.0664L16.6311 21.0098C33.9038 21.0098 51.1802 21.0098 68.4594 21.0098L79.8087 41.0664C54.9661 41.0664 30.1217 41.0664 5.27357 41.0664Z" fill="#AC8EC2"/>
<path fill-rule="evenodd" clip-rule="evenodd" d="M5.27358 41.0666L15.3065 23.3474C25.0846 22.7883 37.0838 24.2091 49.3488 27.7823C60.9758 31.1657 70.8895 35.9159 77.9313 41.0666H5.27358Z" fill="#8178B8"/>
<path fill-rule="evenodd" clip-rule="evenodd" d="M80.4283 77.7188H4.65759V85.1603H80.4283V77.7188Z" fill="#AC8EC2"/>
<path fill-rule="evenodd" clip-rule="evenodd" d="M29.5579 58.8076H13.5163V77.7185H29.5579V58.8076Z" fill="#8178B8"/>
<path fill-rule="evenodd" clip-rule="evenodd" d="M13.5162 77.5324V58.8076H28.9016C25.8142 65.3609 20.6112 71.8417 13.5162 77.5324Z" fill="#AC8EC2"/>
<path fill-rule="evenodd" clip-rule="evenodd" d="M69.6777 53.3037H36.0076V71.1888H69.6777V53.3037Z" fill="#C4C4C4"/>
<path fill-rule="evenodd" clip-rule="evenodd" d="M38.7585 71.1888H36.0076V53.3037H69.6777V53.9985C67.0505 56.4809 64.0878 58.8477 60.8043 61.0505C53.8753 65.698 46.3183 69.0905 38.7585 71.1888Z" fill="#F0EFEF"/>
<path fill-rule="evenodd" clip-rule="evenodd" d="M60.3808 71.1896L57.8884 59.8936H47.7941L45.3081 71.1896C50.3323 71.1896 55.3529 71.1896 60.3808 71.1896Z" fill="#A5752A"/>
<path fill-rule="evenodd" clip-rule="evenodd" d="M55.1357 59.8945H47.7922L45.6931 69.4379H57.2412L55.1357 59.8945Z" fill="#CB8F30"/>
<path fill-rule="evenodd" clip-rule="evenodd" d="M80.4283 81.4385H4.65759V85.1583H80.4283V81.4385Z" fill="#8178B8"/>
<path fill-rule="evenodd" clip-rule="evenodd" d="M66.6893 2.90771H18.3984C17.1362 2.90771 16.1013 3.8088 16.1013 4.91246V22.8599C16.1013 23.9635 17.1362 24.8646 18.3984 24.8646H26.0462V30.9375H31.5957V24.8646H53.4866V30.9375H59.0361V24.8646H66.6893C67.9516 24.8646 68.9865 23.9635 68.9865 22.8599V4.91246C68.9847 3.8088 67.9498 2.90771 66.6893 2.90771Z" fill="#E6A429"/>
<path fill-rule="evenodd" clip-rule="evenodd" d="M66.6893 2.90771H18.3984C17.1362 2.90771 16.1013 3.8088 16.1013 4.91246V20.8185C23.8077 22.6518 33.2649 22.3374 42.8945 19.4343C53.8533 16.1334 62.7889 10.1549 68.1001 3.33671C67.7133 3.0663 67.2219 2.90771 66.6893 2.90771Z" fill="#FDDA00"/>
<mask id="mask0_406_6563" style="mask-type:luminance" maskUnits="userSpaceOnUse" x="3" y="1" width="79" height="86">
<path d="M81.708 1.61816H3.38801V86.4502H81.708V1.61816Z" fill="white"/>
</mask>
<g mask="url(#mask0_406_6563)">
<path d="M20.6058 7.23689C19.8981 7.23689 19.3288 7.81256 19.3288 8.51656C19.3288 9.22056 19.8981 9.79623 20.6058 9.79623H23.5327V12.3152H20.6058C19.8981 12.3152 19.3288 12.8909 19.3288 13.594C19.3288 14.3035 19.8981 14.8736 20.6058 14.8736H23.5327V17.3963H20.6058C19.8981 17.3963 19.3288 17.9665 19.3288 18.676C19.3288 19.3791 19.8981 19.9501 20.6058 19.9501H24.8114C25.5136 19.9501 26.0883 19.3791 26.0883 18.676V8.51656C26.0883 7.81073 25.5136 7.23689 24.8114 7.23689H20.6058ZM32.5939 18.6778C32.5939 19.3809 33.1632 19.952 33.8708 19.952C34.573 19.952 35.1478 19.3809 35.1478 18.6778V8.51656C35.1478 7.81073 34.573 7.23689 33.8708 7.23689H29.7642C28.9273 7.23689 27.9125 8.29381 27.5257 8.92081C26.2286 10.9934 27.0444 13.5582 29.1353 14.7077L27.1645 17.8116C26.7868 18.4019 26.9619 19.1893 27.5532 19.5679C28.1481 19.9465 28.9346 19.7741 29.3123 19.1783L32.043 14.8718H32.5958V18.6778H32.5939ZM32.5939 9.79806V12.3171H30.1217C29.9411 12.1814 29.7917 12.021 29.6771 11.845C29.3773 11.3628 29.3773 10.7523 29.6771 10.2692C29.7898 10.0941 29.9411 9.93373 30.1217 9.79806H32.5939ZM41.5516 7.11864C36.7318 7.11864 34.2797 13.9726 37.5943 18.0765C39.7458 20.7394 43.3556 20.7394 45.5125 18.0765C48.8272 13.9726 46.3696 7.11864 41.5516 7.11864ZM39.5707 10.7248C41.4581 8.38914 44.4776 10.2335 44.4776 13.594C44.4776 16.9627 41.4581 18.8016 39.5707 16.4641C38.313 14.9103 38.313 12.2786 39.5707 10.7248ZM54.1686 9.79806C54.8717 9.79806 55.4455 9.22239 55.4455 8.51839C55.4455 7.81256 54.8717 7.23873 54.1686 7.23873H47.9783C47.2743 7.23873 46.7069 7.81439 46.7069 8.51839C46.7069 9.22239 47.2762 9.79806 47.9783 9.79806H49.7998V18.6796C49.7998 19.3827 50.369 19.9538 51.0767 19.9538C51.7788 19.9538 52.3536 19.3827 52.3536 18.6796V9.79806H54.1686ZM65.7589 15.9471C65.7589 15.2412 65.1842 14.6674 64.482 14.6674C63.7798 14.6674 63.2051 15.2431 63.2051 15.9471C63.2051 17.3358 60.6458 18.0875 59.2387 16.9572C57.9618 15.9379 59.0526 14.4135 60.9299 14.3878C65.5105 14.32 67.3063 9.73389 64.2391 7.27906C61.1728 4.81873 56.1303 6.68323 56.1303 10.2784C56.1303 10.9824 56.705 11.5581 57.4072 11.5581C58.1148 11.5581 58.6841 10.9824 58.6841 10.2784C58.6841 8.88964 61.2434 8.13798 62.6505 9.26823C63.9274 10.2876 62.8476 11.8211 60.9079 11.8376C56.5336 11.8743 54.5114 16.4274 57.6501 18.9464C60.7163 21.4031 65.7589 19.5441 65.7589 15.9471ZM66.6893 1.62598H18.3984C16.5101 1.62598 14.8243 3.02389 14.8243 4.91039V21.6148L4.21759 40.3451C4.07368 40.5825 4.00034 40.7741 4.00034 41.0646V44.4481C4.00034 46.5096 5.48534 47.8993 7.54326 48.6391V76.437H4.65759C3.94992 76.437 3.38068 77.0126 3.38068 77.7166V85.1581C3.38068 85.8667 3.94992 86.4369 4.65759 86.4369H80.4283C81.1314 86.4369 81.7062 85.8667 81.7062 85.1581V77.7166C81.7062 77.0108 81.1314 76.437 80.4283 76.437H77.5372V48.6409C79.6006 47.9011 81.0856 46.5115 81.0856 44.4499V41.0665C81.0856 40.7979 81.0068 40.5531 80.8683 40.3524L70.2616 21.6166V4.91223C70.2634 3.02573 68.5758 1.62598 66.6893 1.62598ZM15.7823 25.0972C16.4395 25.7444 17.3809 26.1441 18.3984 26.1441H22.737L16.2058 39.7868H7.46534L15.7823 25.0972ZM24.7693 27.7913V30.9373C24.7693 31.6459 25.344 32.2161 26.0462 32.2161H30.8101L28.2865 39.785H19.0245L24.7693 27.7913ZM35.5254 26.1441H41.2647V39.7868H30.9687L35.5254 26.1441ZM43.8213 26.1441H49.6228L54.1778 39.7868H43.8194V26.1441H43.8213ZM54.3345 32.2161H59.0361C59.7438 32.2161 60.313 31.6459 60.313 30.9373V27.652L66.1458 39.7868H56.8636L54.3345 32.2161ZM62.4223 26.1441H66.6893C67.7078 26.1441 68.6455 25.7462 69.3055 25.0972L77.6215 39.7868H68.9737L62.4223 26.1441ZM18.3984 4.18623H66.6893C67.1715 4.18623 67.7078 4.48598 67.7078 4.91223V22.8596C67.7078 23.2841 67.1697 23.5856 66.6893 23.5856H59.0361C58.3321 23.5856 57.7647 24.1613 57.7647 24.8644V29.6631H54.7653V24.8644C54.7653 24.1595 54.1961 23.5856 53.4884 23.5856H31.5975C30.8953 23.5856 30.3206 24.1613 30.3206 24.8644V29.6631H27.3268V24.8644C27.3268 24.1595 26.752 23.5856 26.0498 23.5856H18.4021C17.9172 23.5856 17.3846 23.2859 17.3846 22.8596V4.91223C17.3791 4.48598 17.9117 4.18623 18.3984 4.18623ZM49.1572 61.1745C49.214 61.8271 49.7631 62.346 50.4286 62.346C51.1023 62.346 51.6496 61.829 51.7009 61.1745H53.9807C54.032 61.8271 54.5811 62.346 55.2521 62.346C55.9203 62.346 56.4676 61.829 56.5244 61.1745H56.8654L58.7877 69.9103H46.8875L48.8107 61.1745H49.1572ZM51.7073 58.6161C51.7073 58.2265 51.6294 58.0147 52.2207 57.8332C52.8458 57.6471 53.9788 57.7911 53.9788 58.2631V58.6161H51.7073ZM56.5336 58.6161V58.2631C56.5336 54.1702 49.1535 54.1702 49.1535 58.2631V58.6161H47.7923C47.1469 58.6161 46.6088 59.1019 46.5263 59.7344L44.2878 69.9103H37.2863V54.5836H68.4008V69.9103H61.3983L59.1333 59.6189C58.9976 59.0231 58.4705 58.6197 57.8866 58.6197V58.6142H56.5336V58.6161ZM19.2253 67.8991C19.2253 67.1942 18.656 66.6195 17.9483 66.6195C17.2434 66.6195 16.6705 67.1961 16.6705 67.8991V68.6251C16.6705 69.3337 17.2453 69.9048 17.9483 69.9048C18.656 69.9048 19.2253 69.3337 19.2253 68.6251V67.8991ZM36.0076 72.4706H69.6777C70.3853 72.4706 70.9546 71.9004 70.9546 71.1909V53.3058C70.9546 52.6 70.3853 52.0261 69.6777 52.0261H36.0076C35.299 52.0261 34.7307 52.6018 34.7307 53.3058V71.1909C34.7307 71.9004 35.2972 72.4706 36.0076 72.4706ZM14.7932 76.4388V60.0873H28.281V76.4388H14.7932ZM30.8348 76.4388V58.8076C30.8348 58.1018 30.2656 57.528 29.5579 57.528H13.5163C12.8123 57.528 12.2393 58.1036 12.2393 58.8076V76.4388H10.098V49.212C12.6005 49.4769 15.8739 49.0305 17.6999 47.3255C20.4985 49.9371 27.3176 49.9371 30.1217 47.3255C32.9203 49.9371 39.7403 49.9371 42.5443 47.3255C45.3429 49.9371 52.162 49.9371 54.9661 47.3255C57.7647 49.9371 64.5893 49.9371 67.3878 47.3255C69.2148 49.0305 72.4818 49.4751 74.9852 49.212V76.4388H30.8348ZM5.93451 78.9981H79.1514V83.8785H5.93451V78.9981ZM6.55142 42.3461H16.423V44.4499C16.423 45.6361 14.7932 46.2374 13.7445 46.4812C12.4676 46.7773 10.4812 46.8277 9.20884 46.4757C9.15292 46.4556 9.09609 46.4446 9.03376 46.4336C7.62759 46.0715 6.55142 45.3968 6.55142 44.4481V42.3461ZM18.9768 42.3461H28.8429V44.4499C28.8429 46.7608 22.5399 47.4804 19.8853 45.7974C19.3215 45.4445 18.975 44.9944 18.975 44.4499V42.3461H18.9768ZM31.3986 42.3461H41.2665V44.4499C41.2665 46.7461 35.035 47.4804 32.34 45.8176C31.7616 45.4591 31.3986 45.0036 31.3986 44.4499V42.3461ZM43.8213 42.3461H53.6873V44.4499C53.6873 46.7608 47.388 47.4804 44.7297 45.7974C44.1659 45.4445 43.8194 44.9944 43.8194 44.4499V42.3461H43.8213ZM56.243 42.3461H66.1091V44.4499C66.1091 46.7461 59.8776 47.4804 57.1826 45.8176C56.6042 45.4591 56.2412 45.0036 56.2412 44.4499V42.3461H56.243ZM68.6657 42.3461H78.5318V44.4499C78.5318 46.7406 72.3048 47.4804 69.6016 45.8176C69.0268 45.4591 68.6657 44.9981 68.6657 44.4499V42.3461Z" fill="black"/>
</g>
<mask id="mask1_406_6563" style="mask-type:luminance" maskUnits="userSpaceOnUse" x="35" y="5" width="4" height="3">
<path d="M38.8124 5.25781H35.099V7.3249H38.8124V5.25781Z" fill="white"/>
</mask>
<g mask="url(#mask1_406_6563)">
<mask id="mask2_406_6563" style="mask-type:luminance" maskUnits="userSpaceOnUse" x="34" y="5" width="5" height="3">
<path d="M34.965 5.16309H38.9543V7.50975H34.965V5.16309Z" fill="white"/>
</mask>
<g mask="url(#mask2_406_6563)">
<mask id="mask3_406_6563" style="mask-type:luminance" maskUnits="userSpaceOnUse" x="35" y="5" width="4" height="3">
<path d="M38.8121 5.25781H35.0987V7.3249H38.8121V5.25781Z" fill="white"/>
</mask>
<g mask="url(#mask3_406_6563)">
<path d="M38.8121 5.25781H35.0987V7.3249H38.8121V5.25781Z" fill="#F5CE0E"/>
</g>
</g>
</g>
</svg>
